# xmcd
#
# Track frame offsets:
#	150
#	18315
#	29447
#	45525
#	59695
#	74657
#	91362
#	102227
#	117155
#	132262
#	141667
#	155500
#	173795
#	193257
#	207425
#	224105
#	232070
#	246962
#	263042
#
# Disc length: 3672
#
# Revision: 3
# Processed by: cddbd v1.5.1PL0 Copyright (c) Steve Scherf et al.
# Submitted via: dBpowerAMP V4.0
# Normalized: r2:TSWAP
#
DISCID=300e5613
DTITLE=Various Artist - #65 Country Spectacular 3 Sampler
DYEAR=1992
DGENRE=Country
TTITLE0=Stoney Edwards - Just For Old Times Sake
TTITLE1=Stoney Edwards - Dixie Sundown
TTITLE2=Sammi Smith - Cloudy Days
TTITLE3=j. Blanchard and m. Morgan - Sea of Heartbreak
TTITLE4=Bruce Anfinson - Last Cattle Drive
TTITLE5=Richard Shindell - The Kenworth of my Dreams
TTITLE6=Melba Montgomery - Your Heart Turned Left (And I Was on The Right)
TTITLE7=Sammy Kershaw - Business is Pleasure
TTITLE8=Ian Whitcomb and His Bungalow Boys - Old New England Moon
TTITLE9=Lotusland - The Chorines: Laugh
TTITLE10=Steve Gillette - Grapes of The Vine
TTITLE11=Bonnie Abrams - Second Fiddle
TTITLE12=Servaas - I'd Love You to Want me
TTITLE13=Sammy Kershaw - I Just Ended up Hurting Myself
TTITLE14=Michael Jerling - Before The Country Moved to Town
TTITLE15=Jeannie c. Riley - Blue Moon of Kentucky
TTITLE16=Rick Willhite - City Boy's Dream
TTITLE17=Don Richmond - Daddy Said
TTITLE18=Michele Bishop - Little White Lie
EXTD=1992\nTrack Info Format:\n    Selection Title | Artist: Album Title
EXTT0=
EXTT1=
EXTT2=
EXTT3=
EXTT4=
EXTT5=
EXTT6=
EXTT7=
EXTT8=
EXTT9=
EXTT10=
EXTT11=
EXTT12=
EXTT13=
EXTT14=
EXTT15=
EXTT16=
EXTT17=
EXTT18=
PLAYORDER=
